<svg width="30" height="22" viewBox="0 0 30 22" fill="none" xmlns="http://www.w3.org/2000/svg">
<path d="M0.449898 7.47112L5.34765 12.3401C5.64758 12.6382 6.03954 12.7873 6.43149 12.7873C6.82345 12.7873 7.21541 12.6382 7.51534 12.3401C8.1152 11.7437 8.1152 10.7781 7.51534 10.1851L5.23517 7.91837H21.3838C24.4444 7.91837 26.9325 10.3918 26.9325 13.4345C26.9325 16.4771 24.4444 18.9506 21.3838 18.9506H15.5828C14.7341 18.9506 14.0491 19.6316 14.0491 20.4753C14.0491 21.319 14.7341 22 15.5828 22H21.3838C26.135 22 30 18.1577 30 13.4345C30 8.71123 26.135 4.86894 21.3838 4.86894H5.23517L7.51534 2.60219C8.1152 2.00585 8.1152 1.0402 7.51534 0.447251C6.91547 -0.149084 5.9441 -0.149084 5.34765 0.447251L0.449898 5.31619C-0.149966 5.91252 -0.149966 6.87818 0.449898 7.47112Z" fill="currentColor"/>
</svg>
