<svg width="27" height="23" viewBox="0 0 27 23" fill="none" xmlns="http://www.w3.org/2000/svg">
<path d="M5.79541 0.421029C6.32263 -0.140343 7.17739 -0.140343 7.70461 0.421029L13.1046 6.17103C13.6318 6.73242 13.6318 7.64258 13.1046 8.20397C12.5774 8.7653 11.7226 8.7653 11.1954 8.20397L8.10001 4.90793V21.5625C8.10001 22.3564 7.49559 23 6.75001 23C6.00443 23 5.40001 22.3564 5.40001 21.5625V4.90793L2.3046 8.20397C1.77738 8.7653 0.922618 8.7653 0.395402 8.20397C-0.131801 7.64258 -0.131801 6.73242 0.395402 6.17103L5.79541 0.421029ZM18.9 18.0921V1.4375C18.9 0.643597 19.5044 0 20.25 0C20.9956 0 21.6 0.643597 21.6 1.4375V18.0921L24.6954 14.796C25.2226 14.2347 26.0774 14.2347 26.6046 14.796C27.1318 15.3574 27.1318 16.2676 26.6046 16.829L21.2046 22.579C20.9515 22.8485 20.608 23 20.25 23C19.892 23 19.5486 22.8485 19.2954 22.579L13.8954 16.829C13.3683 16.2676 13.3683 15.3574 13.8954 14.796C14.4226 14.2347 15.2774 14.2347 15.8046 14.796L18.9 18.0921Z" fill="currentColor"/>
</svg>
