<svg width="21" height="21" viewBox="0 0 21 21" fill="none" xmlns="http://www.w3.org/2000/svg">
<path fill-rule="evenodd" clip-rule="evenodd" d="M0.43912 0.43912C1.02564 -0.146373 1.97513 -0.146373 2.5606 0.43912L10.5 8.37852L18.4394 0.43912C19.0249 -0.146373 19.9744 -0.146373 20.5609 0.43912C21.1464 1.02564 21.1464 1.97513 20.5609 2.5606L12.6215 10.5L20.5609 18.4394C21.1464 19.0249 21.1464 19.9744 20.5609 20.5609C19.9744 21.1464 19.0249 21.1464 18.4394 20.5609L10.5 12.6215L2.5606 20.5609C1.97511 21.1464 1.02561 21.1464 0.43912 20.5609C-0.146373 19.9744 -0.146373 19.0249 0.43912 18.4394L8.37852 10.5L0.43912 2.5606C-0.146373 1.97511 -0.146373 1.02561 0.43912 0.43912Z" fill="currentColor"/>
</svg>
