<svg width="32" height="29" viewBox="0 0 32 29" fill="none" xmlns="http://www.w3.org/2000/svg">
<path d="M17.2655 18.9515L13.5709 15.312L13.6145 15.2685C16.1455 12.4555 17.9491 9.222 19.0109 5.8H23.2727V2.9H13.0909V0H10.1818V2.9H0V5.7855H16.2473C15.2727 8.584 13.7309 11.2375 11.6364 13.5575C10.2836 12.064 9.16364 10.4255 8.27636 8.7H5.36727C6.42909 11.0635 7.88364 13.2965 9.70182 15.312L2.29818 22.591L4.36364 24.65L11.6364 17.4L16.16 21.9095L17.2655 18.9515ZM25.4545 11.6H22.5455L16 29H18.9091L20.5382 24.65H27.4473L29.0909 29H32L25.4545 11.6ZM21.6436 21.75L24 15.4715L26.3564 21.75H21.6436Z" fill="currentColor"/>
</svg>
