<svg width="23" height="23" viewBox="0 0 23 23" fill="none" xmlns="http://www.w3.org/2000/svg">
<path d="M23 9.7672C22.9993 8.22533 22.6336 6.7055 21.9328 5.33196C21.2321 3.95841 20.2161 2.77014 18.9681 1.86427C17.72 0.9584 16.2751 0.360649 14.7517 0.119875C13.2283 -0.120898 11.6695 0.00214129 10.2027 0.478937C8.73598 0.955732 7.40291 1.77275 6.31249 2.8632C5.22207 3.95366 4.40525 5.28659 3.9288 6.75306C3.45235 8.21952 3.32979 9.77788 3.57115 11.3008C3.81251 12.8236 4.41092 14.2678 5.31749 15.5152L0.449338 20.3819C0.161633 20.6695 9.14066e-07 21.0596 8.94882e-07 21.4663C8.75697e-07 21.8731 0.161633 22.2632 0.449338 22.5508C0.737042 22.8384 1.12726 23 1.53413 23C1.94101 23 2.33122 22.8384 2.61892 22.5508L7.48707 17.6841C8.94553 18.7449 10.6693 19.3812 12.4674 19.5226C14.2654 19.6639 16.0675 19.3048 17.6739 18.485C19.2803 17.6651 20.6282 16.4167 21.5683 14.8779C22.5084 13.3392 23.0039 11.5702 23 9.7672ZM6.51727 9.7672C6.51727 8.44088 6.9107 7.14433 7.64779 6.04153C8.38488 4.93873 9.43254 4.07921 10.6583 3.57164C11.884 3.06408 13.2328 2.93128 14.534 3.19003C15.8353 3.44879 17.0305 4.08747 17.9687 5.02533C18.9068 5.96318 19.5457 7.15808 19.8045 8.45892C20.0634 9.75976 19.9305 11.1081 19.4228 12.3335C18.9151 13.5589 18.0553 14.6062 16.9522 15.3431C15.849 16.0799 14.5521 16.4732 13.2253 16.4732C11.4469 16.4712 9.74183 15.764 8.48426 14.5068C7.2267 13.2497 6.5193 11.5451 6.51727 9.7672Z" fill="currentColor"/>
</svg>
