<svg width="180" height="180" viewBox="0 0 180 180" fill="none" xmlns="http://www.w3.org/2000/svg">
<g clip-path="url(#clip0_485_2)">
<rect x="2" width="178" height="180" rx="42" fill="#CFC9B6"/>
<g clip-path="url(#clip1_485_2)">
<path d="M90.4553 111.321H89.5447C89.5447 111.321 79.0732 85.8777 34 88.1494V106.323H45.3821V219H65.8699L66.3252 115.41C66.3252 115.41 75.9772 118.59 80.439 140.853C80.8943 143.125 81.8049 152.666 81.8049 152.666L81.3496 156.755H98.6504L98.1951 152.666C98.1951 152.666 99.1057 143.125 99.561 140.853C104.023 118.59 113.675 115.41 113.675 115.41L114.176 219H134.663L134.618 106.323H146V88.1494C100.927 85.8777 90.4553 111.321 90.4553 111.321Z" fill="black"/>
<path d="M111.399 48.167C108.667 28.1759 89.545 15 89.545 15C89.545 15 86.8133 19.9978 84.0816 24.0869C81.3499 28.1759 69.0572 40.8976 68.1467 59.98C67.2361 79.0624 87.7239 91.3296 87.7239 91.3296C87.7239 91.3296 114.039 67.4312 111.399 48.167ZM86.358 77.6993C86.358 77.6993 79.9841 71.7929 80.8946 59.0713C81.8052 46.3497 90.4556 43.6236 90.4556 43.6236C94.8719 46.3042 97.8767 50.8022 98.6507 55.8909C100.017 64.5234 95.0085 73.6102 86.358 77.6993Z" fill="#F42601"/>
</g>
</g>
<defs>
<clipPath id="clip0_485_2">
<rect width="180" height="180" fill="white"/>
</clipPath>
<clipPath id="clip1_485_2">
<rect width="112" height="204" fill="white" transform="translate(34 15)"/>
</clipPath>
</defs>
</svg>
